<mxfile host="app.diagrams.net" modified="2023-04-12T06:41:24.941Z" agent="Mozilla/5.0 (Windows NT 10.0; Win64; x64) AppleWebKit/537.36 (KHTML, like Gecko) Chrome/111.0.0.0 Safari/537.36" etag="LgA6OB87SpP6cLVnnqb8" version="21.1.5" type="github">
  <diagram name="第 1 页" id="r8stADk9tumxcbbNgdHM">
    <mxGraphModel dx="954" dy="552" grid="1" gridSize="10" guides="1" tooltips="1" connect="1" arrows="1" fold="1" page="1" pageScale="1" pageWidth="827" pageHeight="1169" math="0" shadow="0">
      <root>
        <mxCell id="0" />
        <mxCell id="1" parent="0" />
        <mxCell id="DkSWO1Iey6LycQ_yNcO1-17" style="edgeStyle=orthogonalEdgeStyle;rounded=1;orthogonalLoop=1;jettySize=auto;html=1;fillColor=#dae8fc;strokeColor=#6c8ebf;strokeWidth=4;" edge="1" parent="1" source="DkSWO1Iey6LycQ_yNcO1-1">
          <mxGeometry relative="1" as="geometry">
            <mxPoint x="370" y="380" as="targetPoint" />
          </mxGeometry>
        </mxCell>
        <mxCell id="DkSWO1Iey6LycQ_yNcO1-1" value="" style="rounded=1;whiteSpace=wrap;html=1;fillColor=#fff2cc;strokeColor=#d6b656;" vertex="1" parent="1">
          <mxGeometry x="210" y="450" width="120" height="60" as="geometry" />
        </mxCell>
        <mxCell id="DkSWO1Iey6LycQ_yNcO1-19" style="edgeStyle=orthogonalEdgeStyle;rounded=0;orthogonalLoop=1;jettySize=auto;html=1;fillColor=#d5e8d4;strokeColor=#82b366;strokeWidth=4;" edge="1" parent="1" source="DkSWO1Iey6LycQ_yNcO1-2">
          <mxGeometry relative="1" as="geometry">
            <mxPoint x="390" y="380" as="targetPoint" />
          </mxGeometry>
        </mxCell>
        <mxCell id="DkSWO1Iey6LycQ_yNcO1-2" value="" style="rounded=1;whiteSpace=wrap;html=1;fillColor=#fff2cc;strokeColor=#d6b656;" vertex="1" parent="1">
          <mxGeometry x="210" y="570" width="120" height="60" as="geometry" />
        </mxCell>
        <mxCell id="DkSWO1Iey6LycQ_yNcO1-3" value="" style="rounded=1;whiteSpace=wrap;html=1;fillColor=#fff2cc;strokeColor=#d6b656;" vertex="1" parent="1">
          <mxGeometry x="450" y="690" width="120" height="60" as="geometry" />
        </mxCell>
        <mxCell id="DkSWO1Iey6LycQ_yNcO1-22" style="edgeStyle=orthogonalEdgeStyle;rounded=1;orthogonalLoop=1;jettySize=auto;html=1;fillColor=#e3c800;strokeColor=#B09500;strokeWidth=4;" edge="1" parent="1" source="DkSWO1Iey6LycQ_yNcO1-4">
          <mxGeometry relative="1" as="geometry">
            <mxPoint x="350" y="380" as="targetPoint" />
          </mxGeometry>
        </mxCell>
        <mxCell id="DkSWO1Iey6LycQ_yNcO1-4" value="" style="rounded=1;whiteSpace=wrap;html=1;fillColor=#fff2cc;strokeColor=#d6b656;" vertex="1" parent="1">
          <mxGeometry x="210" y="690" width="120" height="60" as="geometry" />
        </mxCell>
        <mxCell id="DkSWO1Iey6LycQ_yNcO1-21" style="edgeStyle=orthogonalEdgeStyle;rounded=1;orthogonalLoop=1;jettySize=auto;html=1;fillColor=#1ba1e2;strokeColor=#006EAF;strokeWidth=4;" edge="1" parent="1" source="DkSWO1Iey6LycQ_yNcO1-5">
          <mxGeometry relative="1" as="geometry">
            <mxPoint x="430" y="380" as="targetPoint" />
          </mxGeometry>
        </mxCell>
        <mxCell id="DkSWO1Iey6LycQ_yNcO1-5" value="" style="rounded=1;whiteSpace=wrap;html=1;fillColor=#fff2cc;strokeColor=#d6b656;" vertex="1" parent="1">
          <mxGeometry x="450" y="570" width="120" height="60" as="geometry" />
        </mxCell>
        <mxCell id="DkSWO1Iey6LycQ_yNcO1-16" style="edgeStyle=orthogonalEdgeStyle;rounded=0;orthogonalLoop=1;jettySize=auto;html=1;strokeWidth=4;fillColor=#e1d5e7;strokeColor=#9673a6;" edge="1" parent="1" source="DkSWO1Iey6LycQ_yNcO1-6">
          <mxGeometry relative="1" as="geometry">
            <mxPoint x="410" y="380" as="targetPoint" />
          </mxGeometry>
        </mxCell>
        <mxCell id="DkSWO1Iey6LycQ_yNcO1-6" value="" style="rounded=1;whiteSpace=wrap;html=1;fillColor=#fff2cc;strokeColor=#d6b656;" vertex="1" parent="1">
          <mxGeometry x="450" y="450" width="120" height="60" as="geometry" />
        </mxCell>
        <mxCell id="DkSWO1Iey6LycQ_yNcO1-7" value="&lt;p class=&quot;MsoNormal&quot;&gt;全局公告模块&lt;/p&gt;" style="text;html=1;strokeColor=none;fillColor=none;align=center;verticalAlign=middle;whiteSpace=wrap;rounded=0;" vertex="1" parent="1">
          <mxGeometry x="230" y="465" width="80" height="30" as="geometry" />
        </mxCell>
        <mxCell id="DkSWO1Iey6LycQ_yNcO1-8" value="&lt;p class=&quot;MsoNormal&quot;&gt;部门公告模块&lt;/p&gt;" style="text;html=1;strokeColor=none;fillColor=none;align=center;verticalAlign=middle;whiteSpace=wrap;rounded=0;" vertex="1" parent="1">
          <mxGeometry x="230" y="585" width="80" height="30" as="geometry" />
        </mxCell>
        <mxCell id="DkSWO1Iey6LycQ_yNcO1-9" value="&lt;p class=&quot;MsoNormal&quot;&gt;业务信息模块&lt;/p&gt;" style="text;html=1;strokeColor=none;fillColor=none;align=center;verticalAlign=middle;whiteSpace=wrap;rounded=0;" vertex="1" parent="1">
          <mxGeometry x="230" y="705" width="80" height="30" as="geometry" />
        </mxCell>
        <mxCell id="DkSWO1Iey6LycQ_yNcO1-10" value="&lt;p class=&quot;MsoNormal&quot;&gt;重要信息模块&lt;/p&gt;" style="text;html=1;strokeColor=none;fillColor=none;align=center;verticalAlign=middle;whiteSpace=wrap;rounded=0;" vertex="1" parent="1">
          <mxGeometry x="470" y="465" width="80" height="30" as="geometry" />
        </mxCell>
        <mxCell id="DkSWO1Iey6LycQ_yNcO1-11" value="&lt;p class=&quot;MsoNormal&quot;&gt;公告查看模块&lt;/p&gt;" style="text;html=1;strokeColor=none;fillColor=none;align=center;verticalAlign=middle;whiteSpace=wrap;rounded=0;" vertex="1" parent="1">
          <mxGeometry x="470" y="585" width="80" height="30" as="geometry" />
        </mxCell>
        <mxCell id="DkSWO1Iey6LycQ_yNcO1-23" style="edgeStyle=orthogonalEdgeStyle;rounded=1;orthogonalLoop=1;jettySize=auto;html=1;fillColor=#d0cee2;strokeColor=#56517e;strokeWidth=4;exitX=0;exitY=0.5;exitDx=0;exitDy=0;" edge="1" parent="1" source="DkSWO1Iey6LycQ_yNcO1-3">
          <mxGeometry relative="1" as="geometry">
            <mxPoint x="400" y="380" as="targetPoint" />
          </mxGeometry>
        </mxCell>
        <mxCell id="DkSWO1Iey6LycQ_yNcO1-12" value="&lt;p class=&quot;MsoNormal&quot;&gt;公告查询模块&lt;/p&gt;" style="text;html=1;strokeColor=none;fillColor=none;align=center;verticalAlign=middle;whiteSpace=wrap;rounded=0;" vertex="1" parent="1">
          <mxGeometry x="470" y="705" width="80" height="30" as="geometry" />
        </mxCell>
        <mxCell id="DkSWO1Iey6LycQ_yNcO1-13" value="&lt;p class=&quot;MsoNormal&quot;&gt;&lt;font style=&quot;font-size: 24px;&quot;&gt;公告模块管理系统&lt;/font&gt;&lt;/p&gt;" style="text;html=1;strokeColor=#d6b656;fillColor=#fff2cc;align=center;verticalAlign=middle;whiteSpace=wrap;rounded=0;" vertex="1" parent="1">
          <mxGeometry x="280" y="330" width="226" height="40" as="geometry" />
        </mxCell>
        <mxCell id="DkSWO1Iey6LycQ_yNcO1-24" value="" style="editableCssRules=.*;html=1;shape=image;verticalLabelPosition=bottom;labelBackgroundColor=#ffffff;verticalAlign=top;aspect=fixed;imageAspect=0;image=data:image/svg+xml,PHN2ZyB4bWxucz0iaHR0cDovL3d3dy53My5vcmcvMjAwMC9zdmciIHhtbG5zOnY9Imh0dHBzOi8vdmVjdGEuaW8vbmFubyIgd2lkdGg9IjIwIiBoZWlnaHQ9IjE5LjI5OTk5OTIzNzA2MDU0NyIgdmlld0JveD0iMCAwIDIwIDE5LjI5OTk5OTIzNzA2MDU0NyI+JiN4YTsJPHN0eWxlIHR5cGU9InRleHQvY3NzIj4mI3hhOwkuc3Qwe2ZpbGw6IzQyODVmNDt9JiN4YTsJLnN0MXtmaWxsOiM2NjlkZjY7fSYjeGE7CTwvc3R5bGU+JiN4YTsJPHBhdGggY2xhc3M9InN0MCIgZD0iTTIuNDMgNi4xSDBWMi42N2gzLjk0bDguNCAxMC40OWgyLjM0di0yLjcyTDIwIDE0Ljg3bC01LjMyIDQuNDN2LTIuNzFoLTMuODd6Ii8+JiN4YTsJPHBhdGggY2xhc3M9InN0MSIgZD0iTTE0LjY4IDYuMTR2Mi43MkwyMCA0LjQzIDE0LjY4IDB2Mi43MWgtMy44N0w4LjMzIDUuODJsMi4xMyAyLjY3IDEuODgtMi4zNXpNMCAxMy4ydjMuNDNoMy45NGwyLjUyLTMuMTUtMi4xMy0yLjY3LTEuOSAyLjM5eiIvPiYjeGE7PC9zdmc+;" vertex="1" parent="1">
          <mxGeometry x="346.68" y="150" width="92.63" height="88" as="geometry" />
        </mxCell>
        <mxCell id="DkSWO1Iey6LycQ_yNcO1-26" value="&lt;font style=&quot;font-size: 24px;&quot;&gt;数据交换中心&lt;/font&gt;" style="text;html=1;strokeColor=#b46504;fillColor=#fad7ac;align=center;verticalAlign=middle;whiteSpace=wrap;rounded=0;" vertex="1" parent="1">
          <mxGeometry x="310" y="110" width="170" height="30" as="geometry" />
        </mxCell>
        <mxCell id="DkSWO1Iey6LycQ_yNcO1-27" value="" style="shape=doubleArrow;direction=south;whiteSpace=wrap;html=1;fillColor=#fad7ac;strokeColor=#b46504;" vertex="1" parent="1">
          <mxGeometry x="367.5" y="260" width="20" height="58" as="geometry" />
        </mxCell>
        <mxCell id="DkSWO1Iey6LycQ_yNcO1-28" value="" style="shape=doubleArrow;direction=south;whiteSpace=wrap;html=1;fillColor=#fad7ac;strokeColor=#b46504;" vertex="1" parent="1">
          <mxGeometry x="398.5" y="260" width="20" height="58" as="geometry" />
        </mxCell>
        <mxCell id="DkSWO1Iey6LycQ_yNcO1-29" value="" style="shape=curlyBracket;whiteSpace=wrap;html=1;rounded=1;labelPosition=left;verticalLabelPosition=middle;align=right;verticalAlign=middle;strokeWidth=2;" vertex="1" parent="1">
          <mxGeometry x="580" y="420" width="20" height="120" as="geometry" />
        </mxCell>
        <mxCell id="DkSWO1Iey6LycQ_yNcO1-30" value="" style="shape=curlyBracket;whiteSpace=wrap;html=1;rounded=1;flipH=1;labelPosition=right;verticalLabelPosition=middle;align=left;verticalAlign=middle;strokeWidth=2;" vertex="1" parent="1">
          <mxGeometry x="180" y="420" width="20" height="120" as="geometry" />
        </mxCell>
        <mxCell id="DkSWO1Iey6LycQ_yNcO1-31" value="&lt;p class=&quot;MsoNormal&quot;&gt;发布全单位的公告信息，如单位政策、规定、重要通知等，通知全单位员工&lt;/p&gt;" style="text;html=1;strokeColor=none;fillColor=none;align=center;verticalAlign=middle;whiteSpace=wrap;rounded=0;" vertex="1" parent="1">
          <mxGeometry x="30" y="410" width="150" height="155" as="geometry" />
        </mxCell>
        <mxCell id="DkSWO1Iey6LycQ_yNcO1-32" value="" style="shape=curlyBracket;whiteSpace=wrap;html=1;rounded=1;flipH=1;labelPosition=right;verticalLabelPosition=middle;align=left;verticalAlign=middle;strokeWidth=2;" vertex="1" parent="1">
          <mxGeometry x="180" y="540" width="20" height="120" as="geometry" />
        </mxCell>
        <mxCell id="DkSWO1Iey6LycQ_yNcO1-35" value="&lt;p class=&quot;MsoNormal&quot;&gt;用于发布部门的公告信息，如部门工作计划、汇报、人员调整、重要会议通知等，让部门管理人员能即时通知部门员工，落实上级要求&lt;/p&gt;" style="text;html=1;strokeColor=none;fillColor=none;align=center;verticalAlign=middle;whiteSpace=wrap;rounded=0;" vertex="1" parent="1">
          <mxGeometry x="30" y="522.5" width="150" height="155" as="geometry" />
        </mxCell>
        <mxCell id="DkSWO1Iey6LycQ_yNcO1-36" value="" style="shape=curlyBracket;whiteSpace=wrap;html=1;rounded=1;flipH=1;labelPosition=right;verticalLabelPosition=middle;align=left;verticalAlign=middle;strokeWidth=2;" vertex="1" parent="1">
          <mxGeometry x="180" y="660" width="20" height="120" as="geometry" />
        </mxCell>
        <mxCell id="DkSWO1Iey6LycQ_yNcO1-40" value="&lt;p class=&quot;MsoNormal&quot;&gt;用于发布商标审查业务通用的相关通知和信息，如审查标准、商标分类指南、审查流程的更新等，帮助审查员更好地进行审查工作。&lt;/p&gt;" style="text;html=1;strokeColor=none;fillColor=none;align=center;verticalAlign=middle;whiteSpace=wrap;rounded=0;" vertex="1" parent="1">
          <mxGeometry x="30" y="642.5" width="150" height="155" as="geometry" />
        </mxCell>
        <mxCell id="DkSWO1Iey6LycQ_yNcO1-41" value="&lt;p class=&quot;MsoNormal&quot;&gt;用于发布重要的商标审查信息，如特殊商标公告、时事敏感词汇的处理等，以便审查员能够及时准确地判断商标的可注册性。&lt;/p&gt;" style="text;html=1;strokeColor=none;fillColor=none;align=center;verticalAlign=middle;whiteSpace=wrap;rounded=0;" vertex="1" parent="1">
          <mxGeometry x="610" y="402.5" width="150" height="155" as="geometry" />
        </mxCell>
        <mxCell id="DkSWO1Iey6LycQ_yNcO1-42" value="" style="shape=curlyBracket;whiteSpace=wrap;html=1;rounded=1;labelPosition=left;verticalLabelPosition=middle;align=right;verticalAlign=middle;strokeWidth=2;" vertex="1" parent="1">
          <mxGeometry x="580" y="540" width="20" height="120" as="geometry" />
        </mxCell>
        <mxCell id="DkSWO1Iey6LycQ_yNcO1-43" value="" style="shape=curlyBracket;whiteSpace=wrap;html=1;rounded=1;labelPosition=left;verticalLabelPosition=middle;align=right;verticalAlign=middle;strokeWidth=2;" vertex="1" parent="1">
          <mxGeometry x="580" y="660" width="20" height="120" as="geometry" />
        </mxCell>
        <mxCell id="DkSWO1Iey6LycQ_yNcO1-44" value="&lt;p class=&quot;MsoNormal&quot;&gt;用于用户点击公告信息时进入查看页面，应具有展示不同格式的功能，如查看包括文字、文字样式、图片、表格、思维导图、多媒体的功能。&lt;/p&gt;" style="text;html=1;strokeColor=none;fillColor=none;align=center;verticalAlign=middle;whiteSpace=wrap;rounded=0;" vertex="1" parent="1">
          <mxGeometry x="610" y="510" width="150" height="155" as="geometry" />
        </mxCell>
        <mxCell id="DkSWO1Iey6LycQ_yNcO1-45" value="&lt;p class=&quot;MsoNormal&quot;&gt;用于查询和搜索历史公告信息，根据标题、关键字、标签查询，方便员工查询以前的公告，列出公告的前几行摘要，点击后进入公告查看板块，查看各版块的历史公告信息。&lt;br&gt;&lt;/p&gt;" style="text;html=1;strokeColor=none;fillColor=none;align=center;verticalAlign=middle;whiteSpace=wrap;rounded=0;" vertex="1" parent="1">
          <mxGeometry x="610" y="642.5" width="150" height="155" as="geometry" />
        </mxCell>
      </root>
    </mxGraphModel>
  </diagram>
</mxfile>
